<svg viewBox="0 0 500 500" width="500" height="500" version="1.1" baseProfile="full" xmlns="http://www.w3.org/2000/svg"><style id="js-draw-style-sheet">path{stroke-linecap:round;stroke-linejoin:round;}text{white-space:pre;}</style><path d="M26,53Q15,53 13,56Q12,58 12,66Q12,67 22,77Q22,77 35,77Q39,77 37,91Q35,102 8,110Q7,110 6,108" fill="none" stroke="#803380" stroke-width="4"></path><path d="M15,181q0,8 0,30" fill="none" stroke="#803380" stroke-width="4"></path><path d="M9,176Q12,176 20,176Q25,176 33,192Q35,196 20,196Q15,196 39,207Q41,208 42,213" fill="none" stroke="#803380" stroke-width="4"></path><path d="M57,89q31,0 35-2q5-3 14-20q2-5 10-5q10,0 40-5q3,0 13,13q7,10 12,8q4-1 18-2q57-3 60-3q17-3 21-2q5,1 7-1" fill="none" stroke="#803380" stroke-width="4"></path><path d="M286,70q10-2 16-6q3-2 10-11q2-2 12-1q6,1 25-2q17-3 24,1q6,3 23,20q1,1 4,2q5,2 22,1q6,0 25,5q5,1 20,0" fill="none" stroke="#803380" stroke-width="4"></path><path d="M75,214q87,0 92-2q2-1 16-1q5,0 11-12q12-23 16-25q3-1 16-2q5,0 18-4q4-1 35-1q3,0 6,10q0,1 9,6q7,4 7,12q0,6 10,6q72,0 72,0q25-6 83-6" fill="none" stroke="#803380" stroke-width="4"></path><path d="M91,44q0,126.5 1,132q1.6,8.6 8,34q0,0 0,27" fill="none" stroke="#cc6633" stroke-width="2"></path><path d="M83,193q-1.2,.5 -5,2q-1,.4 -1,13q0,4.8 10,2q5.3-1.5 -1-14q-.6-1.1 -5-1" fill="none" stroke="#cc6633" stroke-width="2"></path><path d="M84,67q-2.5,1.7 -10,7q-2.5,1.7 1,9q1.1,2.4 9,0q2-.6 2-15q0-.9 -3-2" fill="none" stroke="#cc6633" stroke-width="2"></path><path d="M29,256Q18,257 14,261Q8,267 12,278Q13,282 30,278Q36,277 36,267Q36,258 29,256" fill="none" stroke="#803380" stroke-width="4"></path><path d="M25,271q3,3 12,14" fill="none" stroke="#803380" stroke-width="4"></path><path d="M51,290q41,0 44-1" fill="none" stroke="#803380" stroke-width="4"></path><path d="M99,231q0,15 0,60" fill="none" stroke="#cc6633" stroke-width="2"></path><path d="M80,263q-3,7 -3,11q0,1.1 3,3q4.9,3.2 5-6q0-.5 -1-6q-.2-.9 -8-1" fill="none" stroke="#cc6633" stroke-width="2"></path><path d="M165,284q0-73.3 1-77q1.5-5.6 2-31q.1-6.5 2-26q.9-9.5 4-38q0,0 0-45q0-5.9 -6-23q-1.2-3.3 0-14" fill="none" stroke="#cc6633" stroke-width="2"></path><path d="M210,268q0-58.6 -1-62q-1.3-4.3 -6-17q-2-5.4 -2-42q0-23.3 -2-93q-.4-12.5 -2-19" fill="none" stroke="#cc6633" stroke-width="2"></path><path d="M288,28q2,155.9 0,165q-1.6,7 -10,27q-1.8,4.1 0,18q.8,6.2 1,25q.1,7.4 6,14" fill="none" stroke="#cc6633" stroke-width="2"></path><path d="M319,275q0-43.1 -2-53q-1.9-9.6 -9-38q-1.4-5.7 -2-30q-.2-10 -4-40q-1-8 -1-65q0-4.3 2-17q.2-1.3 -2-5" fill="none" stroke="#cc6633" stroke-width="2"></path><path d="M393,34q0,51 1,204q0,6.8 -2,27q-.4,3.6 4,14q.5,1.2 0,5" fill="none" stroke="#cc6633" stroke-width="2"></path><path d="M129,34q0,4.8 0,19" fill="none" stroke="#cc6633" stroke-width="2"></path><path d="M139,185q-9.7,0 -12,2q-1.8,1.6 -2,13q-.1,3.9 9,4q6,.1 6-24q0-.7 -3,0" fill="none" stroke="#cc6633" stroke-width="2"></path><path d="M95,291q16-14 18-23q0-1 35-1q3,0 13-1" fill="none" stroke="#803380" stroke-width="4"></path><path d="M190,59q-1,.8 -4,3q-1.1,.8 -2,9q-.2,1.6 6,5q2.6,1.5 6-8q.4-1 -8-12" fill="none" stroke="#cc6633" stroke-width="2"></path><path d="M186,172q-1.2,.5 -5,2q-.1,0 -1,6q-1,6.3 -1,17q0,1.8 7-2q.3-.2 4-4q.8-.8 2-4q1.2-3.2 -3-8q-1.3-1.4 -3-7" fill="none" stroke="#cc6633" stroke-width="2"></path><path d="M162,267q12,0 47,1" fill="none" stroke="#803380" stroke-width="4"></path><path d="M148,244q0,17.2 1,19" fill="none" stroke="#cc6633" stroke-width="2"></path><path d="M188,245q0,3.5 0,14" fill="none" stroke="#cc6633" stroke-width="2"></path><path d="M246,57q-8.9,0 -9,3q-.2,4.6 2,6q1.3,.9 6,2q11.5,2.8 9-6q-.3-1.1 -4-2q-.2-.1 -3-2" fill="none" stroke="#cc6633" stroke-width="2"></path><path d="M240,132q2.4,29.1 3,32" fill="none" stroke="#cc6633" stroke-width="2"></path><path d="M213,265q11,21 12,23q1,3 11,0q5-1 22,2q6,1 24,5q4,1 18-1q4-1 18,0" fill="none" stroke="#803380" stroke-width="4"></path><path d="M253,265q-9.3,0 -12,1q-1.9,.7 -2,12q0,.4 7,4q2.1,1.1 8-7q4.1-5.5 -7-10" fill="none" stroke="#cc6633" stroke-width="2"></path><path d="M280,271q0,5.3 1,21" fill="none" stroke="#cc6633" stroke-width="2"></path><path d="M292,50q-1,13 -1,18q0,1.3 7-2q2.8-1.3 -2-12" fill="none" stroke="#cc6633" stroke-width="2"></path><path d="M299,159q-1,8 1,14q1.5,4.5 5-2q1.1-2.1 -4-11" fill="none" stroke="#cc6633" stroke-width="2"></path><path d="M298,273q-.7,.8 -3,3q-.9,.9 -1,13q0,.7 7,1q3.3,.1 4-10q0,0 -6-5" fill="none" stroke="#cc6633" stroke-width="2"></path><path d="M341,23q0,3 0,12" fill="none" stroke="#cc6633" stroke-width="2"></path><path d="M349,164q-2.9,2.9 -4,8q-1.2,5.9 4,8q3.7,1.5 6-5q1.4-4.1 -2-6q-1.5-.8 -6-3" fill="none" stroke="#cc6633" stroke-width="2"></path><path d="M311,293q0-8 4-12q9-9 16-9q17-1 67-2q0,0 75,0" fill="none" stroke="#803380" stroke-width="4"></path><path d="M426,47q-1.2,.8 -5,3q-2,1.2 -2,11q0,8.6 8,9q5,.3 5-20q0-3 -8-9" fill="none" stroke="#cc6633" stroke-width="2"></path><path d="M430,161q-2,11 -2,16q0,.1 3,3q3.3,3.2 9-5q1.6-2.3 0-11q-.5-2.9 -6-5" fill="none" stroke="#cc6633" stroke-width="2"></path><path d="M366,249q0,5.5 0,22" fill="none" stroke="#cc6633" stroke-width="2"></path><path d="M438,247q0,5 0,20" fill="none" stroke="#cc6633" stroke-width="2"></path></svg>