<svg viewBox="0 0 500 500" width="500" height="500" version="1.1" baseProfile="full" xmlns="http://www.w3.org/2000/svg"><style id="js-draw-style-sheet">path{stroke-linecap:round;stroke-linejoin:round;}text{white-space:pre;}</style><path d="M142.75,149.5q19.25,1.75 26.25,8.75q14,14 14,21q1.75,36.75 -17.5,75.25q-1.75,3.5 -8.75,10.5q-14,14 45.5-15.75q21-10.5 24.5-15.75q7-12.25 12.25-35q8.75-31.5 -14-40.25q-5.25-1.75 -17.5-7q-19.25-7 -50.75-1.75q-1.75,0 -10.5,0" fill="none" stroke="#803380" stroke-width="7"></path><path d="M253,189.75q-1.75,0 -8.75-1.75q-7-1.75 -7-15.75q0-1.75 19.25,0q1.75,0 1.75,12.25q0,0 -3.5,5.25" fill="none" stroke="#803380" stroke-width="7"></path><path d="M158.5,322.75q12.25-1.75 15.75,0q5.25,1.75 5.25,22.75q0,1.75 -12.25,26.25q-5.25,10.5 -19.25,42q-1.75,5.25 17.5-8.75q7-3.5 29.75-7q21-1.75 45.5-19.25q12.25-8.75 12.25-38.5q0-14 -28-22.75q-35-12.25 -43.75-3.5q-5.25,5.25 -15.75,5.25" fill="none" stroke="#803380" stroke-width="7"></path><path d="M260,357.75q-15.75-10.5 -21-14q-3.5-1.75 15.75-8.75q8.75-3.5 8.75,22.75q0,1.75 -3.5,3.5" fill="none" stroke="#803380" stroke-width="7"></path><path d="M32.5,163.5q54.25,1.75 82.25,8.75q15.75,3.5 61.25-1.75" fill="none" stroke="#803380" stroke-width="7"></path><path d="M57,100.5q0,7 0,26.25" fill="none" stroke="#803380" stroke-width="7"></path><path d="M57,100.5q15.75,0 21,3.5q1.75,1.75 -1.75,12.25q-1.75,3.5 -21,3.5q0,0 15.75,7q3.5,1.75 12.25,10.5" fill="none" stroke="#803380" stroke-width="7"></path><path d="M69.25,319.25q-12.25,1.75 -15.75,8.75q-3.5,7 17.5,7q7,0 -1.75,14q-3.5,5.25 -26.25-1.75" fill="none" stroke="#803380" stroke-width="7"></path><path d="M44.75,371.75q45.5,0 59.5-7q15.75-7 63-24.5" fill="none" stroke="#803380" stroke-width="7"></path><path d="M261.75,179.25q22.75,0 176.75-1.75" fill="none" stroke="#803380" stroke-width="7"></path><path d="M288,112.75q1.75,19.25 7,24.5q5.25,5.25 21,0q3.5,0 0-12.25q0-1.75 -19.25-14q-1.75-1.75 -12.25,0" fill="none" stroke="#803380" stroke-width="7"></path><path d="M303.75,126.75q10.5,8.75 12.25,10.5" fill="none" stroke="#803380" stroke-width="7"></path><path d="M305.5,312.25q-10.5,0 -14,3.5q-10.5,8.75 -3.5,26.25q0,0 21,0q3.5,0 3.5-14q0-8.75 -15.75-8.75" fill="none" stroke="#803380" stroke-width="7"></path><path d="M307.25,335q10.5,10.5 17.5,15.75" fill="none" stroke="#803380" stroke-width="7"></path><path d="M333.5,352.5q-1.75-15.75 -7-31.5q-1.75-5.25 15.75,17.5q7,8.75 7-14q0-7 3.5-26.25" fill="none" stroke="#803380" stroke-width="7"></path><path d="M263.5,357.75q112,0 127.75-3.5q15.75-3.5 66.5-5.25" fill="none" stroke="#803380" stroke-width="7"></path><path d="M342.25,175.75q0,0 1.75-1.75q1.75-1.75 1.75,7q0,1.75 -7,3.5q-1.75,0 3.5-3.5q1.75,0 -3.5,3.5" fill="none" stroke="#803380" stroke-width="7"></path><path d="M338.75,181q0,5.25 0,21q0,3.5 -14,10.5q-1.75,1.75 -19.25,28q0,0 -22.75,12.25q-1.75,0 -28,1.75q-10.5,0 -38.5,12.25q-33.25,14 -42,14q-8.75,0 -33.25,12.25q-3.5,1.75 -15.75,28q-10.5,21 -10.5,56q0,5.25 19.25,5.25q7,0 29.75,1.75" fill="none" stroke="#803380" stroke-width="7"></path><path d="M391.25,349q7,0 10.5,3.5q1.75,3.5 -10.5,5.25q-1.75,0 -1.75,0q-7-1.75 3.5-5.25" fill="none" stroke="#803380" stroke-width="7"></path><path d="M393,352.5q0-24.5 -5.25-29.75q-7-7 -24.5-33.25q-1.75-1.75 -43.75-1.75q-10.5,0 -42,5.25q-10.5,1.75 -42-8.75q-3.5-1.75 -43.75-1.75q-7,0 -28-3.5q-10.5-1.75 -64.75-1.75q-1.75,0 -28-8.75q-21-7 -21-29.75q0-10.5 24.5-10.5q10.5,0 40.25-3.5q29.75-3.5 64.75-3.5" fill="none" stroke="#803380" stroke-width="7"></path></svg>